<svg width="145" height="13" viewBox="0 0 145 13" fill="none" xmlns="http://www.w3.org/2000/svg">
<path d="M9.11044 4.54545H6.74112C6.75817 4.34375 6.7468 4.16193 6.70703 4C6.66726 3.83807 6.59908 3.69886 6.50249 3.58239C6.40589 3.46307 6.27947 3.37216 6.12322 3.30966C5.96697 3.24716 5.78089 3.21591 5.56499 3.21591C5.15021 3.21591 4.77947 3.3196 4.45277 3.52699C4.12607 3.73153 3.85476 4.02557 3.63885 4.40909C3.42294 4.78977 3.26953 5.24432 3.17862 5.77273C3.09908 6.28409 3.09624 6.70881 3.1701 7.04688C3.2468 7.38494 3.39595 7.63778 3.61754 7.8054C3.84197 7.97301 4.13317 8.05682 4.49112 8.05682C4.72976 8.05682 4.94851 8.02841 5.14737 7.97159C5.34908 7.91477 5.52805 7.83381 5.6843 7.72869C5.84339 7.62074 5.97834 7.4929 6.08913 7.34517C6.20277 7.1946 6.28942 7.02841 6.34908 6.84659H8.73544C8.64453 7.21591 8.4826 7.59375 8.24965 7.98011C8.01669 8.36364 7.71555 8.71733 7.34624 9.04119C6.97692 9.36222 6.54226 9.62216 6.04226 9.82102C5.54226 10.0199 4.97976 10.1193 4.35476 10.1193C3.53658 10.1193 2.83061 9.94034 2.23686 9.58239C1.64595 9.22443 1.21697 8.7017 0.949929 8.0142C0.685724 7.3267 0.633168 6.48864 0.792259 5.5C0.951349 4.54545 1.26527 3.74574 1.73402 3.10085C2.20277 2.45597 2.77237 1.97017 3.44283 1.64347C4.11328 1.31676 4.82635 1.15341 5.58203 1.15341C6.15305 1.15341 6.66442 1.22869 7.11612 1.37926C7.57067 1.52983 7.95277 1.75 8.26243 2.03977C8.57493 2.3267 8.80504 2.6804 8.95277 3.10085C9.1005 3.52131 9.15305 4.00284 9.11044 4.54545ZM12.4609 10.1193C11.7507 10.1193 11.1655 9.97869 10.7053 9.69744C10.2479 9.41335 9.92685 9.01847 9.74219 8.51278C9.55753 8.00426 9.5206 7.41477 9.63139 6.74432C9.74219 6.07386 9.97372 5.4858 10.326 4.98011C10.6783 4.47159 11.1314 4.0767 11.6854 3.79545C12.2393 3.51136 12.8729 3.36932 13.5859 3.36932C14.2933 3.36932 14.8757 3.51136 15.3331 3.79545C15.7933 4.0767 16.1158 4.47159 16.3004 4.98011C16.4879 5.4858 16.5263 6.07386 16.4155 6.74432C16.3047 7.41477 16.0717 8.00426 15.7166 8.51278C15.3615 9.01847 14.907 9.41335 14.353 9.69744C13.8018 9.97869 13.1712 10.1193 12.4609 10.1193ZM12.7507 8.38068C12.9553 8.38068 13.1413 8.31392 13.3089 8.1804C13.4794 8.04687 13.6243 7.85653 13.7436 7.60938C13.8658 7.36222 13.9553 7.06818 14.0121 6.72727C14.0689 6.38352 14.0774 6.08949 14.0376 5.84517C13.9979 5.59801 13.9155 5.40767 13.7905 5.27415C13.6655 5.14062 13.5007 5.07386 13.2962 5.07386C13.0916 5.07386 12.9041 5.14062 12.7337 5.27415C12.5632 5.40767 12.4183 5.59801 12.299 5.84517C12.1797 6.08949 12.0916 6.38352 12.0348 6.72727C11.978 7.06818 11.968 7.36222 12.005 7.60938C12.0447 7.85653 12.1271 8.04687 12.2521 8.1804C12.38 8.31392 12.5462 8.38068 12.7507 8.38068ZM16.4325 12.4545L17.9411 3.45455H20.2763L20.0888 4.59659H20.1399C20.2592 4.375 20.4155 4.17187 20.6087 3.98722C20.8047 3.79972 21.0348 3.65057 21.299 3.53977C21.5661 3.42614 21.8615 3.36932 22.1854 3.36932C22.6172 3.36932 23.0078 3.48438 23.3572 3.71449C23.7067 3.9446 23.9638 4.30682 24.1286 4.80114C24.2933 5.29545 24.3104 5.9375 24.1797 6.72727C24.0547 7.48295 23.8317 8.10937 23.5107 8.60653C23.1925 9.10369 22.8175 9.47443 22.3857 9.71875C21.9567 9.96307 21.5092 10.0852 21.0433 10.0852C20.7365 10.0852 20.4709 10.0355 20.2464 9.93608C20.022 9.83381 19.8416 9.69602 19.7053 9.52273C19.5689 9.34659 19.4751 9.14773 19.424 8.92614H19.3729L18.7933 12.4545H16.4325ZM19.6967 6.72727C19.6456 7.04545 19.6413 7.32102 19.6839 7.55398C19.7294 7.78409 19.8189 7.96307 19.9524 8.09091C20.0888 8.21591 20.2649 8.27841 20.4808 8.27841C20.6967 8.27841 20.8899 8.21733 21.0604 8.09517C21.2308 7.97017 21.3757 7.79261 21.495 7.5625C21.6143 7.32955 21.7024 7.05114 21.7592 6.72727C21.8104 6.40341 21.8146 6.12642 21.772 5.89631C21.7294 5.66335 21.6428 5.4858 21.5121 5.36364C21.3814 5.23864 21.2081 5.17614 20.9922 5.17614C20.7763 5.17614 20.5788 5.23864 20.3999 5.36364C20.2237 5.4858 20.0746 5.66335 19.9524 5.89631C19.8331 6.12642 19.7479 6.40341 19.6967 6.72727ZM25.4496 12.4545C25.1768 12.4545 24.9226 12.4332 24.6868 12.3906C24.451 12.3509 24.245 12.2955 24.0689 12.2244L24.8615 10.554C25.0433 10.6222 25.2109 10.6662 25.3643 10.6861C25.5206 10.706 25.6584 10.6946 25.7777 10.652C25.897 10.6094 25.995 10.5284 26.0717 10.4091L26.1484 10.2898L24.9808 3.45455H27.3501L27.6484 7.98864H27.7166L29.549 3.45455H32.1058L28.5433 10.5455C28.3615 10.9062 28.1342 11.2301 27.8615 11.517C27.5916 11.8068 27.2592 12.0355 26.8643 12.2031C26.4695 12.3707 25.9979 12.4545 25.4496 12.4545ZM31.6839 10L32.7749 3.45455H35.0589L34.8544 4.69886H34.9226C35.1186 4.23864 35.3643 3.90199 35.6598 3.68892C35.9553 3.47585 36.2777 3.36932 36.6271 3.36932C36.7294 3.36932 36.8274 3.37784 36.9212 3.39489C37.0178 3.40909 37.1129 3.42898 37.2067 3.45455L36.8658 5.46591C36.755 5.4233 36.6172 5.39347 36.4524 5.37642C36.2876 5.35653 36.1413 5.34659 36.0135 5.34659C35.7862 5.34659 35.5732 5.39915 35.3743 5.50426C35.1783 5.60653 35.0107 5.75142 34.8714 5.93892C34.7351 6.12358 34.6442 6.34091 34.5987 6.59091L34.0362 10H31.6839ZM36.8871 10L37.978 3.45455H40.3303L39.2393 10H36.8871ZM39.2564 2.77273C38.9382 2.77273 38.6811 2.66761 38.4851 2.45739C38.2891 2.24432 38.2166 1.99148 38.2678 1.69886C38.3189 1.40057 38.4751 1.14773 38.7365 0.940341C38.9979 0.730114 39.2876 0.625 39.6058 0.625C39.9268 0.625 40.1825 0.730114 40.3729 0.940341C40.5632 1.14773 40.6342 1.40057 40.5859 1.69886C40.5405 1.99148 40.3871 2.24432 40.1257 2.45739C39.8672 2.66761 39.5774 2.77273 39.2564 2.77273ZM43.1822 12.5909C42.5231 12.5909 41.9748 12.4972 41.5373 12.3097C41.1026 12.125 40.7816 11.8693 40.5742 11.5426C40.3697 11.2188 40.2844 10.8466 40.3185 10.4261H42.5856C42.5913 10.5682 42.6325 10.6818 42.7092 10.767C42.7859 10.8523 42.8924 10.9134 43.0288 10.9503C43.1651 10.9872 43.3242 11.0057 43.506 11.0057C43.8129 11.0057 44.0785 10.9304 44.3029 10.7798C44.5273 10.6321 44.6651 10.3665 44.7163 9.98295L44.9038 8.875H44.8356C44.7163 9.09659 44.5558 9.28551 44.354 9.44176C44.1523 9.59517 43.9208 9.71307 43.6594 9.79545C43.3981 9.875 43.1197 9.91477 42.8242 9.91477C42.3583 9.91477 41.9478 9.80682 41.5927 9.59091C41.2404 9.375 40.9847 9.03267 40.8256 8.56392C40.6694 8.09517 40.6538 7.48295 40.7788 6.72727C40.9094 5.9375 41.1396 5.29545 41.4691 4.80114C41.7987 4.30682 42.1779 3.9446 42.6069 3.71449C43.0359 3.48438 43.4663 3.36932 43.8981 3.36932C44.2219 3.36932 44.4961 3.42614 44.7205 3.53977C44.945 3.65057 45.1239 3.79972 45.2575 3.98722C45.391 4.17187 45.4833 4.375 45.5344 4.59659H45.5856L45.7731 3.45455H48.1254L47.0344 9.98295C46.9492 10.5398 46.7319 11.0114 46.3825 11.3977C46.0359 11.7869 45.587 12.0824 45.0359 12.2841C44.4876 12.4886 43.8697 12.5909 43.1822 12.5909ZM43.9663 8.24432C44.1822 8.24432 44.3782 8.18466 44.5543 8.06534C44.7305 7.94318 44.8796 7.76989 45.0018 7.54545C45.1239 7.31818 45.2106 7.04545 45.2617 6.72727C45.3129 6.40341 45.3157 6.12642 45.2702 5.89631C45.2248 5.66335 45.1353 5.4858 45.0018 5.36364C44.8683 5.23864 44.6935 5.17614 44.4776 5.17614C44.2617 5.17614 44.0671 5.23864 43.8938 5.36364C43.7205 5.4858 43.5742 5.66335 43.4549 5.89631C43.3356 6.12642 43.2504 6.40341 43.1992 6.72727C43.1481 7.05114 43.1438 7.3267 43.1864 7.55398C43.229 7.77841 43.3157 7.95028 43.4464 8.0696C43.5771 8.18608 43.7504 8.24432 43.9663 8.24432ZM51.2138 6.31818L50.6001 10H48.2479L49.6967 1.27273H51.9638L51.4013 4.69886H51.4695C51.6825 4.28125 51.9808 3.95597 52.3643 3.72301C52.7479 3.48722 53.1825 3.36932 53.6683 3.36932C54.1286 3.36932 54.5121 3.47443 54.8189 3.68466C55.1257 3.89489 55.343 4.18466 55.4709 4.55398C55.5987 4.9233 55.6229 5.34659 55.5433 5.82386L54.8445 10H52.4922L53.1058 6.31818C53.157 5.99432 53.1158 5.74006 52.9822 5.5554C52.8516 5.37074 52.6371 5.27841 52.3388 5.27841C52.1456 5.27841 51.9695 5.32102 51.8104 5.40625C51.6541 5.48864 51.5234 5.60795 51.4183 5.7642C51.3161 5.91761 51.2479 6.10227 51.2138 6.31818ZM60.983 3.45455L60.6932 5.15909H56.3807L56.6705 3.45455H60.983ZM57.7614 1.88636H60.1136L59.1165 7.89489C59.1023 7.9858 59.1051 8.0625 59.125 8.125C59.1449 8.18466 59.1847 8.23011 59.2443 8.26136C59.3068 8.28977 59.3892 8.30398 59.4915 8.30398C59.5597 8.30398 59.6435 8.29545 59.7429 8.27841C59.8423 8.25852 59.9176 8.24432 59.9688 8.2358L60.0369 9.8892C59.9176 9.9233 59.7571 9.96165 59.5554 10.0043C59.3565 10.0497 59.125 10.0795 58.8608 10.0938C58.3097 10.1193 57.8608 10.0611 57.5142 9.91903C57.1705 9.77699 56.9318 9.5554 56.7983 9.25426C56.6676 8.95028 56.6449 8.57102 56.7301 8.11648L57.7614 1.88636ZM64.0948 3.18182L64.4187 1.27273H72.0039L71.68 3.18182H69.055L67.93 10H65.5948L66.7198 3.18182H64.0948ZM73.668 10.1193C72.9577 10.1193 72.3725 9.97869 71.9123 9.69744C71.4549 9.41335 71.1339 9.01847 70.9492 8.51278C70.7646 8.00426 70.7276 7.41477 70.8384 6.74432C70.9492 6.07386 71.1808 5.4858 71.533 4.98011C71.8853 4.47159 72.3384 4.0767 72.8924 3.79545C73.4464 3.51136 74.0799 3.36932 74.793 3.36932C75.5004 3.36932 76.0827 3.51136 76.5401 3.79545C77.0004 4.0767 77.3228 4.47159 77.5075 4.98011C77.695 5.4858 77.7333 6.07386 77.6225 6.74432C77.5117 7.41477 77.2788 8.00426 76.9237 8.51278C76.5685 9.01847 76.114 9.41335 75.56 9.69744C75.0089 9.97869 74.3782 10.1193 73.668 10.1193ZM73.9577 8.38068C74.1623 8.38068 74.3484 8.31392 74.516 8.1804C74.6864 8.04687 74.8313 7.85653 74.9506 7.60938C75.0728 7.36222 75.1623 7.06818 75.2191 6.72727C75.2759 6.38352 75.2844 6.08949 75.2447 5.84517C75.2049 5.59801 75.1225 5.40767 74.9975 5.27415C74.8725 5.14062 74.7077 5.07386 74.5032 5.07386C74.2987 5.07386 74.1112 5.14062 73.9407 5.27415C73.7702 5.40767 73.6254 5.59801 73.506 5.84517C73.3867 6.08949 73.2987 6.38352 73.2418 6.72727C73.185 7.06818 73.1751 7.36222 73.212 7.60938C73.2518 7.85653 73.3342 8.04687 73.4592 8.1804C73.587 8.31392 73.7532 8.38068 73.9577 8.38068ZM81.4066 10H77.9975L79.4464 1.27273H82.7191C83.6168 1.27273 84.3668 1.45312 84.9691 1.81392C85.5714 2.17472 85.9989 2.69034 86.2518 3.3608C86.5046 4.03125 86.5543 4.82955 86.4009 5.75568C86.2532 6.64773 85.9535 7.41051 85.5018 8.04403C85.0529 8.67756 84.479 9.16193 83.7802 9.49716C83.0842 9.83239 82.293 10 81.4066 10ZM80.6992 7.98864H81.56C81.9918 7.98864 82.3768 7.91335 82.7148 7.76278C83.0558 7.60937 83.3398 7.35369 83.5671 6.99574C83.7972 6.63494 83.9634 6.14205 84.0657 5.51705C84.1623 4.92614 84.1594 4.47017 84.0572 4.14915C83.9549 3.82528 83.7603 3.60085 83.4734 3.47585C83.1864 3.34801 82.8157 3.28409 82.3612 3.28409H81.4833L80.6992 7.98864ZM86.8324 10L87.9233 3.45455H90.2756L89.1847 10H86.8324ZM89.2017 2.77273C88.8835 2.77273 88.6264 2.66761 88.4304 2.45739C88.2344 2.24432 88.1619 1.99148 88.2131 1.69886C88.2642 1.40057 88.4205 1.14773 88.6818 0.940341C88.9432 0.730114 89.233 0.625 89.5511 0.625C89.8722 0.625 90.1278 0.730114 90.3182 0.940341C90.5085 1.14773 90.5795 1.40057 90.5312 1.69886C90.4858 1.99148 90.3324 2.24432 90.071 2.45739C89.8125 2.66761 89.5227 2.77273 89.2017 2.77273ZM92.19 10.1023C91.7752 10.1023 91.4187 10.0341 91.1204 9.89773C90.8249 9.75852 90.609 9.5483 90.4727 9.26705C90.3391 8.98295 90.3093 8.625 90.3832 8.19318C90.4428 7.83523 90.555 7.52983 90.7198 7.27699C90.8846 7.02415 91.0891 6.81676 91.3335 6.65483C91.5778 6.4929 91.8519 6.36932 92.1559 6.28409C92.4627 6.19602 92.7866 6.1392 93.1275 6.11364C93.4968 6.08523 93.7965 6.04972 94.0266 6.0071C94.2567 5.96449 94.4286 5.90625 94.5423 5.83239C94.6559 5.75852 94.7241 5.65909 94.7468 5.53409V5.51705C94.7724 5.34659 94.7269 5.21591 94.6104 5.125C94.4968 5.03409 94.3377 4.98864 94.1332 4.98864C93.9116 4.98864 93.7198 5.03693 93.5579 5.13352C93.3988 5.23011 93.2894 5.38068 93.2298 5.58523H91.065C91.1559 5.1875 91.342 4.82102 91.6232 4.4858C91.9073 4.14773 92.2837 3.87784 92.7525 3.67614C93.2241 3.47159 93.7866 3.36932 94.44 3.36932C94.9059 3.36932 95.315 3.42472 95.6673 3.53551C96.0195 3.64347 96.3107 3.79545 96.5408 3.99148C96.7738 4.18466 96.9371 4.41193 97.0309 4.6733C97.1275 4.93182 97.1502 5.21307 97.0991 5.51705L96.3491 10H94.1502L94.3036 9.07955H94.2525C94.082 9.32386 93.8903 9.52131 93.6772 9.67188C93.467 9.82244 93.2369 9.93182 92.9869 10C92.7397 10.0682 92.4741 10.1023 92.19 10.1023ZM93.2127 8.61932C93.3888 8.61932 93.5621 8.58239 93.7326 8.50852C93.9031 8.43466 94.0494 8.32812 94.1715 8.18892C94.2937 8.04972 94.3718 7.88068 94.4059 7.68182L94.4911 7.13636C94.4286 7.16193 94.359 7.18608 94.2823 7.20881C94.2085 7.22869 94.1303 7.24858 94.0479 7.26847C93.9684 7.28835 93.8832 7.30682 93.7923 7.32386C93.7042 7.34091 93.6133 7.35795 93.5195 7.375C93.332 7.40341 93.1744 7.45028 93.0465 7.51562C92.9187 7.57812 92.8192 7.65625 92.7482 7.75C92.6772 7.84091 92.6332 7.94318 92.6161 8.05682C92.5906 8.2358 92.6317 8.375 92.7397 8.47443C92.8505 8.57102 93.0082 8.61932 93.2127 8.61932ZM97.473 10L98.5639 3.45455H100.848L100.643 4.69886H100.712C100.908 4.23864 101.153 3.90199 101.449 3.68892C101.744 3.47585 102.067 3.36932 102.416 3.36932C102.518 3.36932 102.616 3.37784 102.71 3.39489C102.807 3.40909 102.902 3.42898 102.996 3.45455L102.655 5.46591C102.544 5.4233 102.406 5.39347 102.241 5.37642C102.077 5.35653 101.93 5.34659 101.803 5.34659C101.575 5.34659 101.362 5.39915 101.163 5.50426C100.967 5.60653 100.8 5.75142 100.661 5.93892C100.524 6.12358 100.433 6.34091 100.388 6.59091L99.8253 10H97.473ZM103.907 12.4545C103.634 12.4545 103.38 12.4332 103.144 12.3906C102.908 12.3509 102.702 12.2955 102.526 12.2244L103.319 10.554C103.5 10.6222 103.668 10.6662 103.821 10.6861C103.978 10.706 104.115 10.6946 104.235 10.652C104.354 10.6094 104.452 10.5284 104.529 10.4091L104.605 10.2898L103.438 3.45455H105.807L106.105 7.98864H106.174L108.006 3.45455H110.563L107 10.5455C106.819 10.9062 106.591 11.2301 106.319 11.517C106.049 11.8068 105.716 12.0355 105.321 12.2031C104.926 12.3707 104.455 12.4545 103.907 12.4545ZM121.54 4.54545H119.171C119.188 4.34375 119.176 4.16193 119.137 4C119.097 3.83807 119.029 3.69886 118.932 3.58239C118.836 3.46307 118.709 3.37216 118.553 3.30966C118.397 3.24716 118.211 3.21591 117.995 3.21591C117.58 3.21591 117.209 3.3196 116.882 3.52699C116.556 3.73153 116.284 4.02557 116.069 4.40909C115.853 4.78977 115.699 5.24432 115.608 5.77273C115.529 6.28409 115.526 6.70881 115.6 7.04688C115.676 7.38494 115.826 7.63778 116.047 7.8054C116.272 7.97301 116.563 8.05682 116.921 8.05682C117.159 8.05682 117.378 8.02841 117.577 7.97159C117.779 7.91477 117.958 7.83381 118.114 7.72869C118.273 7.62074 118.408 7.4929 118.519 7.34517C118.632 7.1946 118.719 7.02841 118.779 6.84659H121.165C121.074 7.21591 120.912 7.59375 120.679 7.98011C120.446 8.36364 120.145 8.71733 119.776 9.04119C119.407 9.36222 118.972 9.62216 118.472 9.82102C117.972 10.0199 117.409 10.1193 116.784 10.1193C115.966 10.1193 115.26 9.94034 114.667 9.58239C114.076 9.22443 113.647 8.7017 113.38 8.0142C113.115 7.3267 113.063 6.48864 113.222 5.5C113.381 4.54545 113.695 3.74574 114.164 3.10085C114.632 2.45597 115.202 1.97017 115.873 1.64347C116.543 1.31676 117.256 1.15341 118.012 1.15341C118.583 1.15341 119.094 1.22869 119.546 1.37926C120 1.52983 120.382 1.75 120.692 2.03977C121.005 2.3267 121.235 2.6804 121.382 3.10085C121.53 3.52131 121.583 4.00284 121.54 4.54545ZM124.891 10.1193C124.18 10.1193 123.595 9.97869 123.135 9.69744C122.678 9.41335 122.357 9.01847 122.172 8.51278C121.987 8.00426 121.95 7.41477 122.061 6.74432C122.172 6.07386 122.403 5.4858 122.756 4.98011C123.108 4.47159 123.561 4.0767 124.115 3.79545C124.669 3.51136 125.303 3.36932 126.016 3.36932C126.723 3.36932 127.305 3.51136 127.763 3.79545C128.223 4.0767 128.545 4.47159 128.73 4.98011C128.918 5.4858 128.956 6.07386 128.845 6.74432C128.734 7.41477 128.501 8.00426 128.146 8.51278C127.791 9.01847 127.337 9.41335 126.783 9.69744C126.232 9.97869 125.601 10.1193 124.891 10.1193ZM125.18 8.38068C125.385 8.38068 125.571 8.31392 125.739 8.1804C125.909 8.04687 126.054 7.85653 126.173 7.60938C126.295 7.36222 126.385 7.06818 126.442 6.72727C126.499 6.38352 126.507 6.08949 126.467 5.84517C126.428 5.59801 126.345 5.40767 126.22 5.27415C126.095 5.14062 125.93 5.07386 125.726 5.07386C125.521 5.07386 125.334 5.14062 125.163 5.27415C124.993 5.40767 124.848 5.59801 124.729 5.84517C124.609 6.08949 124.521 6.38352 124.464 6.72727C124.408 7.06818 124.398 7.36222 124.435 7.60938C124.474 7.85653 124.557 8.04687 124.682 8.1804C124.81 8.31392 124.976 8.38068 125.18 8.38068ZM129.254 10L130.345 3.45455H132.629L132.425 4.69886H132.493C132.689 4.23864 132.935 3.90199 133.23 3.68892C133.526 3.47585 133.848 3.36932 134.197 3.36932C134.3 3.36932 134.398 3.37784 134.491 3.39489C134.588 3.40909 134.683 3.42898 134.777 3.45455L134.436 5.46591C134.325 5.4233 134.188 5.39347 134.023 5.37642C133.858 5.35653 133.712 5.34659 133.584 5.34659C133.357 5.34659 133.143 5.39915 132.945 5.50426C132.749 5.60653 132.581 5.75142 132.442 5.93892C132.305 6.12358 132.214 6.34091 132.169 6.59091L131.607 10H129.254ZM134.065 12.4545L135.574 3.45455H137.909L137.722 4.59659H137.773C137.892 4.375 138.048 4.17187 138.241 3.98722C138.438 3.79972 138.668 3.65057 138.932 3.53977C139.199 3.42614 139.494 3.36932 139.818 3.36932C140.25 3.36932 140.641 3.48438 140.99 3.71449C141.339 3.9446 141.597 4.30682 141.761 4.80114C141.926 5.29545 141.943 5.9375 141.812 6.72727C141.688 7.48295 141.464 8.10937 141.143 8.60653C140.825 9.10369 140.45 9.47443 140.018 9.71875C139.589 9.96307 139.142 10.0852 138.676 10.0852C138.369 10.0852 138.104 10.0355 137.879 9.93608C137.655 9.83381 137.474 9.69602 137.338 9.52273C137.202 9.34659 137.108 9.14773 137.057 8.92614H137.006L136.426 12.4545H134.065ZM137.33 6.72727C137.278 7.04545 137.274 7.32102 137.317 7.55398C137.362 7.78409 137.452 7.96307 137.585 8.09091C137.722 8.21591 137.898 8.27841 138.114 8.27841C138.33 8.27841 138.523 8.21733 138.693 8.09517C138.864 7.97017 139.009 7.79261 139.128 7.5625C139.247 7.32955 139.335 7.05114 139.392 6.72727C139.443 6.40341 139.447 6.12642 139.405 5.89631C139.362 5.66335 139.276 5.4858 139.145 5.36364C139.014 5.23864 138.841 5.17614 138.625 5.17614C138.409 5.17614 138.212 5.23864 138.033 5.36364C137.857 5.4858 137.707 5.66335 137.585 5.89631C137.466 6.12642 137.381 6.40341 137.33 6.72727ZM143.58 10.1364C143.248 10.1364 142.976 10.0213 142.766 9.79119C142.559 9.55824 142.472 9.27557 142.506 8.94318C142.54 8.61932 142.686 8.34233 142.945 8.11222C143.206 7.8821 143.503 7.76705 143.836 7.76705C144.151 7.76705 144.414 7.8821 144.624 8.11222C144.837 8.34233 144.926 8.61932 144.892 8.94318C144.87 9.16477 144.792 9.36648 144.658 9.5483C144.527 9.72727 144.365 9.87074 144.172 9.97869C143.982 10.0838 143.784 10.1364 143.58 10.1364Z" fill="black"/>
</svg>
