<svg width="15" height="15" viewBox="0 0 15 15" fill="none" xmlns="http://www.w3.org/2000/svg">
<g clip-path="url(#clip0_33_158)">
<path d="M7.5 6.13635V9.0409H11.5364C11.3591 9.97499 10.8272 10.7659 10.0295 11.2977L12.4636 13.1864C13.8818 11.8773 14.7 9.9546 14.7 7.67052C14.7 7.13871 14.6522 6.6273 14.5636 6.13643L7.5 6.13635Z" fill="#4285F4"/>
<path d="M3.29663 8.92749L2.74766 9.34773L0.804443 10.8613C2.03853 13.309 4.56789 15 7.49968 15C9.52463 15 11.2223 14.3318 12.4633 13.1864L10.0292 11.2977C9.36101 11.7477 8.50873 12.0205 7.49968 12.0205C5.54969 12.0205 3.89293 10.7046 3.2997 8.93182L3.29663 8.92749Z" fill="#34A853"/>
<path d="M0.804487 4.13867C0.293151 5.14772 0 6.28637 0 7.49999C0 8.7136 0.293151 9.85226 0.804487 10.8613C0.804487 10.8681 3.29998 8.92495 3.29998 8.92495C3.14999 8.47495 3.06132 7.9977 3.06132 7.49991C3.06132 7.00212 3.14999 6.52488 3.29998 6.07488L0.804487 4.13867Z" fill="#FBBC05"/>
<path d="M7.49984 2.98636C8.6044 2.98636 9.5862 3.36817 10.3703 4.10454L12.518 1.95684C11.2157 0.743228 9.52487 0 7.49984 0C4.56804 0 2.03853 1.68409 0.804443 4.13864L3.29986 6.07501C3.89301 4.30226 5.54985 2.98636 7.49984 2.98636Z" fill="#EA4335"/>
</g>
<defs>
<clipPath id="clip0_33_158">
<rect width="15" height="15" fill="white"/>
</clipPath>
</defs>
</svg>
