<svg width="117" height="31" viewBox="0 0 117 31" fill="none" xmlns="http://www.w3.org/2000/svg">
<path d="M0.635476 6.95455L1.44514 2.18182H20.4082L19.5985 6.95455H13.036L10.2235 24H4.38548L7.19798 6.95455H0.635476ZM24.5684 24.2983C22.7928 24.2983 21.3297 23.9467 20.1792 23.2436C19.0357 22.5334 18.2331 21.5462 17.7715 20.282C17.3098 19.0107 17.2175 17.5369 17.4945 15.8608C17.7715 14.1847 18.3503 12.7145 19.231 11.4503C20.1117 10.179 21.2445 9.19176 22.6294 8.48864C24.0144 7.77841 25.5982 7.4233 27.3809 7.4233C29.1493 7.4233 30.6053 7.77841 31.7488 8.48864C32.8993 9.19176 33.7054 10.179 34.1671 11.4503C34.6358 12.7145 34.7317 14.1847 34.4547 15.8608C34.1777 17.5369 33.5953 19.0107 32.7076 20.282C31.8198 21.5462 30.6834 22.5334 29.2985 23.2436C27.9206 23.9467 26.3439 24.2983 24.5684 24.2983ZM25.2928 19.9517C25.8042 19.9517 26.2694 19.7848 26.6884 19.451C27.1145 19.1172 27.4767 18.6413 27.775 18.0234C28.0804 17.4055 28.3042 16.6705 28.4462 15.8182C28.5882 14.9588 28.6096 14.2237 28.5101 13.6129C28.4107 12.995 28.2047 12.5192 27.8922 12.1854C27.5797 11.8516 27.1678 11.6847 26.6564 11.6847C26.1451 11.6847 25.6763 11.8516 25.2502 12.1854C24.824 12.5192 24.4618 12.995 24.1635 13.6129C23.8652 14.2237 23.6451 14.9588 23.503 15.8182C23.361 16.6705 23.3361 17.4055 23.4284 18.0234C23.5279 18.6413 23.7338 19.1172 24.0463 19.451C24.3659 19.7848 24.7814 19.9517 25.2928 19.9517ZM43.915 24H35.3922L39.0144 2.18182H47.1962C49.4405 2.18182 51.3155 2.63281 52.8212 3.5348C54.3269 4.43679 55.3958 5.72585 56.0279 7.40199C56.66 9.07812 56.7843 11.0739 56.4007 13.3892C56.0314 15.6193 55.2821 17.5263 54.1529 19.1101C53.0307 20.6939 51.5961 21.9048 49.8489 22.7429C48.1088 23.581 46.1309 24 43.915 24ZM42.1465 18.9716H44.2985C45.378 18.9716 46.3404 18.7834 47.1855 18.407C48.0378 18.0234 48.748 17.3842 49.3162 16.4893C49.8915 15.5874 50.307 14.3551 50.5627 12.7926C50.8042 11.3153 50.7971 10.1754 50.5414 9.37287C50.2857 8.56321 49.7992 8.00213 49.0819 7.68963C48.3645 7.37003 47.4377 7.21023 46.3013 7.21023H44.1067L42.1465 18.9716ZM57.4794 24L60.2067 7.63636H66.0874L63.3601 24H57.4794ZM63.4027 5.93182C62.6072 5.93182 61.9645 5.66903 61.4744 5.14347C60.9844 4.6108 60.8033 3.97869 60.9311 3.24716C61.0589 2.50142 61.4496 1.86932 62.103 1.35085C62.7564 0.825284 63.4808 0.5625 64.2763 0.5625C65.0788 0.5625 65.718 0.825284 66.1939 1.35085C66.6697 1.86932 66.8473 2.50142 66.7266 3.24716C66.6129 3.97869 66.2294 4.6108 65.576 5.14347C64.9297 5.66903 64.2053 5.93182 63.4027 5.93182ZM70.8734 24.2557C69.8365 24.2557 68.9451 24.0852 68.1994 23.7443C67.4608 23.3963 66.921 22.8707 66.5801 22.1676C66.2463 21.4574 66.1717 20.5625 66.3564 19.483C66.5055 18.5881 66.786 17.8246 67.198 17.1925C67.6099 16.5604 68.1213 16.0419 68.7321 15.6371C69.3429 15.2322 70.0282 14.9233 70.7882 14.7102C71.5552 14.4901 72.3649 14.348 73.2172 14.2841C74.1404 14.2131 74.8897 14.1243 75.465 14.0178C76.0403 13.9112 76.47 13.7656 76.7541 13.581C77.0382 13.3963 77.2086 13.1477 77.2654 12.8352V12.7926C77.3294 12.3665 77.2157 12.0398 76.9245 11.8125C76.6404 11.5852 76.2427 11.4716 75.7314 11.4716C75.1774 11.4716 74.698 11.5923 74.2931 11.8338C73.8954 12.0753 73.622 12.4517 73.4728 12.9631H68.0609C68.2882 11.9687 68.7534 11.0526 69.4565 10.2145C70.1667 9.36932 71.1078 8.6946 72.2797 8.19034C73.4586 7.67898 74.8649 7.4233 76.4984 7.4233C77.6632 7.4233 78.6859 7.56179 79.5666 7.83878C80.4473 8.10866 81.1752 8.48864 81.7505 8.97869C82.3329 9.46165 82.7413 10.0298 82.9757 10.6832C83.2172 11.3295 83.274 12.0327 83.1461 12.7926L81.2711 24H75.774L76.1575 21.6989H76.0297C75.6035 22.3097 75.1241 22.8033 74.5914 23.1797C74.0659 23.5561 73.4906 23.8295 72.8656 24C72.2477 24.1705 71.5836 24.2557 70.8734 24.2557ZM73.4302 20.5483C73.8706 20.5483 74.3038 20.456 74.7299 20.2713C75.1561 20.0866 75.5218 19.8203 75.8272 19.4723C76.1326 19.1243 76.3279 18.7017 76.4132 18.2045L76.6262 16.8409C76.47 16.9048 76.296 16.9652 76.1042 17.022C75.9196 17.0717 75.7243 17.1214 75.5183 17.1712C75.3194 17.2209 75.1064 17.267 74.8791 17.3097C74.6589 17.3523 74.4316 17.3949 74.1973 17.4375C73.7285 17.5085 73.3343 17.6257 73.0147 17.7891C72.6951 17.9453 72.4466 18.1406 72.269 18.375C72.0914 18.6023 71.9814 18.858 71.9387 19.142C71.8748 19.5895 71.9778 19.9375 72.2477 20.1861C72.5247 20.4276 72.9189 20.5483 73.4302 20.5483ZM84.081 24L86.8082 7.63636H92.5185L92.0071 10.7472H92.1776C92.6676 9.59659 93.282 8.75497 94.0206 8.2223C94.7592 7.68963 95.5653 7.4233 96.4389 7.4233C96.6946 7.4233 96.9396 7.4446 97.174 7.48722C97.4155 7.52273 97.6534 7.57244 97.8878 7.63636L97.0355 12.6648C96.7585 12.5582 96.4141 12.4837 96.0021 12.4411C95.5902 12.3913 95.2244 12.3665 94.9048 12.3665C94.3366 12.3665 93.804 12.4979 93.3068 12.7607C92.8168 13.0163 92.3977 13.3786 92.0497 13.8473C91.7088 14.3089 91.4815 14.8523 91.3679 15.4773L89.9616 24H84.081ZM100.165 30.1364C99.4831 30.1364 98.8475 30.0831 98.258 29.9766C97.6685 29.8771 97.1536 29.7386 96.7132 29.5611L98.6948 25.3849C99.1493 25.5554 99.5684 25.6655 99.9519 25.7152C100.343 25.7649 100.687 25.7365 100.985 25.63C101.284 25.5234 101.529 25.321 101.72 25.0227L101.912 24.7244L98.9931 7.63636H104.916L105.662 18.9716H105.833L110.414 7.63636H116.806L107.899 25.3636C107.445 26.2656 106.877 27.0753 106.195 27.7926C105.52 28.517 104.689 29.0888 103.702 29.5078C102.715 29.9268 101.536 30.1364 100.165 30.1364Z" fill="#964B00"/>
</svg>
